<?xml version="1.0" encoding="utf-8"?>
<!-- Generator: Adobe Illustrator 24.1.0, SVG Export Plug-In . SVG Version: 6.00 Build 0)  -->
<svg version="1.1" id="a3a13504-18ee-4099-a22c-5e563c906cad"
	 xmlns="http://www.w3.org/2000/svg" xmlns:xlink="http://www.w3.org/1999/xlink" x="0px" y="0px" viewBox="0 0 1191.5 764.2"
	 style="enable-background:new 0 0 1191.5 764.2;" xml:space="preserve">
<style type="text/css">
	.st0{fill:#F2F2F2;}
	.st1{fill:#3F3D56;}
	.st2{opacity:0.1;enable-background:new    ;}
	.st3{fill:#ED8594;}
	.st4{fill:#FFB9B9;}
	.st5{fill:#2F2E41;}
	.st6{fill:#DC3545;}
	.st7{opacity:0.3;fill:#DC3545;enable-background:new    ;}
	.st8{fill:#36334A;}
	.st9{fill:#A0616A;}
	.st10{fill:#575A89;}
	.st11{fill:#DDDDDD;}
</style>
<path class="st0" d="M441.7,220.8c-199.3,154.4-98.9,220.8-220.8,220.8S0,342.8,0,220.8S98.9,0,220.8,0S641,66.4,441.7,220.8z"/>
<path class="st1" d="M488.5,448.8c0,25.7-94.6,84-219.2,84s-232.7-58.3-232.7-84c0-6.4,10.6,1.6,22-4c33.2-16.2,112.5-4.3,202.4-4.9
	c2.8,0,5.6,0,8.4,0C394,439.9,488.5,423.2,488.5,448.8z"/>
<path class="st2" d="M488.5,448.8c0,25.7-94.6,84-219.2,84s-232.7-58.3-232.7-84c0-6.4,10.6,1.6,22-4c33.2-16.2,112.5-4.3,202.4-4.9
	c2.8,0,5.6,0,8.4,0C394,439.9,488.5,423.2,488.5,448.8z"/>
<path class="st1" d="M488,448.4c0,25.7-101.1,46.5-225.8,46.5S36.5,474,36.5,448.4c0-6.4,6.3-12.5,17.7-18.1
	c33.2-16.2,109.7-27.7,199.7-28.4c2.8,0,5.6,0,8.4,0C387,401.9,488,422.7,488,448.4z"/>
<path class="st2" d="M256.6,402.9c-35.1,57.2-109.9,75.1-167.1,40c-8-4.9-15.5-10.8-22.2-17.5C98.8,412.6,171.4,403.4,256.6,402.9z"
	/>
<ellipse class="st1" cx="155.5" cy="320.8" rx="112" ry="120"/>
<path class="st3" d="M637.9,469.3c248.7-190.6,123.4-272.5,275.7-272.5s275.7,122,275.7,272.5s-123.4,272.5-275.7,272.5
	S389.2,659.9,637.9,469.3z"/>
<path class="st4" d="M277.4,134.9V163l-14.4,16.7c0,0-6.1-2.3-6.1-17.5l-2.3-22L277.4,134.9z"/>
<path class="st4" d="M262.9,163c0,0,23.6-16,24.3-21.3s34.2-29.7,28.9-14.4s-22,22-22,22s-12.9,35-24.3,34.2S258.4,168.4,262.9,163z
	"/>
<polygon class="st4" points="249.2,334.1 247,347.8 259.1,344.8 259.1,334.1 "/>
<path class="st5" d="M251.5,341.7c0,0,14.1-8.3,14.6-4.5c0.6,3.8,6.7,18.2,9.7,19.8s6.8,18.2,0,17.5c-5.3-0.6-24.7-10.8-33.2-15.3
	c-2.2-1.2-3-3.8-2-6.1c0.5-0.9,0.8-1.9,1-3C241.6,348.6,251.5,341.7,251.5,341.7z"/>
<path class="st5" d="M244.7,187.4c0,0,55.5,25.8,50.2,45.6s-25.1,103.4-25.1,103.4s-22,5.3-23.6,0c-1.5-5.3,14.4-88.2,12.9-91.2
	s-29.7-22.8-29.7-22.8L171.7,198l24.3-22.8L244.7,187.4z"/>
<polygon class="st4" points="286.5,338.7 293.3,356.2 281.2,361.5 273.6,347.8 "/>
<path class="st4" d="M245.4,62.7c0,0-6.8,9.1-1.5,13.7s1.5,21.3,1.5,21.3l-6.8,19l-27.4-5.3V80.2l1.5-15.2c0,0,13.7-12.9,15.2-22.8
	S245.4,62.7,245.4,62.7z"/>
<path class="st2" d="M245.4,62.7c0,0-6.8,9.1-1.5,13.7s1.5,21.3,1.5,21.3l-6.8,19l-27.4-5.3V80.2l1.5-15.2c0,0,13.7-12.9,15.2-22.8
	S245.4,62.7,245.4,62.7z"/>
<path class="st5" d="M199.8,181.3c0,0,35.7,39.5,35.7,41.1s19,32.7,19,32.7l37.3,82.9c0,0-14.4,19.8-20.5,18.2s-49.4-89.7-49.4-89.7
	s-7.6-19.8-28.1-24.3s-36.5-20.5-28.9-38.8S199.8,181.3,199.8,181.3z"/>
<circle class="st4" cx="245.4" cy="43.7" r="24.3"/>
<path class="st0" d="M244.7,83.2c0,0-3,17.5-6.1,19s-5.3,6.8-12.2-0.8s-12.9-22.8-12.9-22.8l-23.6,28.9l-2.3,79.8c0,0,26.6-6.8,35,0
	c8.4,6.8,26.6,6.1,26.6,6.1l-3.8-15.2l3-25.8l-0.8-23.6l-0.8-16.7L244.7,83.2z"/>
<path class="st1" d="M242,70.4c0,0,10.3,5.2,11,8.2s14.4,9.1,14.4,9.1s5.3,5.3,5.3,8.4s-18.2,38-18.2,38s-3.8,23.6-2.3,28.1
	c1.5,4.6-3,22-3,22l9.1,10.6H250c0,0-9.1-4.6-9.1-6.8s1.5-18.2,2.3-25.1s0.8-31.2-0.8-39.5s-0.8-30.4-0.8-35.7S242,70.4,242,70.4z"
	/>
<path class="st1" d="M218.4,58.9c0,0-3.4,0.8-13.3,3.8c-9.9,3-25.1,7.6-30.4,13.7c-3.7,4.5-7,9.3-9.9,14.4l3,54.7
	c0,0-6.1,11.4-5.3,17.5s6.8,6.8,2.3,19.8c-4.6,12.9-13.7,24.3-5.3,25.8s30.4-3.8,40.3-0.8s21.3-11.4,21.3-11.4s-15.2,1.5-12.9-4.6
	s27.4-74.5,22-89.7S218.4,58.9,218.4,58.9z"/>
<path class="st1" d="M269,92.3l3.8,3c0,0,10.6,38,7.6,41.8s-27.4,12.2-28.9,6.8S269,92.3,269,92.3z"/>
<path class="st4" d="M156.5,118.9c0,0-11.4,32.7-11.4,41.8s1.5,62.3,1.5,62.3s0.8,22.8,16.7,13.7s0-15.2,0-15.2s0.8-60.1,6.8-68.4
	s8.4-20.5,8.4-20.5L156.5,118.9z"/>
<path class="st5" d="M281.2,355.4c0,0,11.4-6.1,13.7-1.5c2.3,4.6,14.4,29.7,12.9,32.7c-1.5,3-9.9,15.2-19.8,12.2
	c-9.9-3-10.6-19-10.6-19l-0.8-18.2L281.2,355.4z"/>
<path class="st5" d="M250.2,37.8c-1.7,0.8-3.7,1.3-4.7,2.8c-0.8,1.1-0.9,2.6-1.4,3.8c-1.3,2.6-4.4,3.7-7,2.6
	c-0.3-1.5-1.2-2.9-2.5-3.7c-1.3-0.9-3-0.8-4.3,0.2c-1.6,1.5-1,4.1-1.7,6.1c-0.7,1.4-1.6,2.7-2.8,3.8c-1.7,1.9-3,4.2-5,5.7
	s-5,2.2-7,0.7c-1.7-1.3-2-3.8-1.6-5.9s1.4-4,2-6.1c1.8-6.7-1.1-13.8-0.2-20.7c1.2-8.8,8.7-15.8,17-18.8c3.5-1.4,7.3-1.8,11-1.2
	c3.8,0.9,7.1,3.3,10.8,4.7c3.9,1.5,8.2,1.7,12.3,2.6s8.3,2.6,10.7,6c1.7,2.4,2.2,5.4,3.6,8c1.6,2.9,4.1,5.2,7.2,6.5l-4.3-0.2
	c0.7,1.9,1.9,3.7,3.5,5c-2,0.4-4.1,0.1-6-0.8c0.1,1.8,0.9,3.5,2.2,4.7c-3.3-0.1-6.9-0.3-9.7-2c-1.4-0.9-2.5-2.1-3.8-3.1
	c-2.8-2.1-6.2-3.1-9.6-4.1c-1.8-0.5-3.9-1.2-5.5-0.1C252.1,35.3,251.9,37,250.2,37.8z"/>
<path class="st1" d="M176.3,81.7l-11.4,9.1l-15.2,35c0,0,21.3,16.7,26.6,14.4s14.4-42.6,14.4-42.6L176.3,81.7z"/>
<path class="st5" d="M347.3,123.4l-48,26.4c-1.1,0.7-2.5,0.4-3.2-0.6c-0.1-0.1-0.1-0.2-0.2-0.4l-11.8-24.6c-0.5-1.4,0.2-3,1.6-3.7
	l39.8-20.5c1-0.6,2.3-0.4,3,0.6l19.9,18.7c0.8,1.4,0.3,3.2-1.1,4C347.4,123.4,347.3,123.4,347.3,123.4z"/>
<polygon class="st0" points="344.1,119.8 299.1,145.5 287.1,123.9 325.7,102.9 "/>
<path class="st6" d="M97,439.7c0,17.4-10.4,23.5-23.1,23.5c-0.3,0-0.6,0-0.9,0c-0.6,0-1.2,0-1.8-0.1c-11.5-0.8-20.5-7.2-20.5-23.4
	c0-16.8,21.4-37.9,23-39.5l0,0c0.1-0.1,0.1-0.1,0.1-0.1S97,422.3,97,439.7z"/>
<path class="st1" d="M73.1,460.5l8.5-11.8L73,461.8l0,1.4c-0.6,0-1.2,0-1.8-0.1l0.9-17.4l0-0.1l0,0l0.1-1.6l-8.5-13.1l8.5,11.9
	l0,0.3l0.7-13.2l-7.3-13.6l7.4,11.3l0.7-27.3l0-0.1v0.1l-0.1,21.5l7.2-8.5l-7.3,10.4l-0.2,11.8l6.8-11.3l-6.8,13l-0.1,6.6l9.8-15.7
	l-9.9,18L73.1,460.5z"/>
<path class="st6" d="M420,403.7c0,17.4-10.4,23.5-23.1,23.5c-0.3,0-0.6,0-0.9,0c-0.6,0-1.2,0-1.8-0.1c-11.5-0.8-20.5-7.2-20.5-23.4
	c0-16.8,21.4-37.9,23-39.5l0,0c0.1-0.1,0.1-0.1,0.1-0.1S420,386.3,420,403.7z"/>
<path class="st1" d="M396.1,424.5l8.5-11.8l-8.5,13.1l0,1.4c-0.6,0-1.2,0-1.8-0.1l0.9-17.4l0-0.1l0,0l0.1-1.6l-8.5-13.1l8.5,11.9
	l0,0.3l0.7-13.2l-7.3-13.6l7.4,11.3l0.7-27.3l0-0.1v0.1l-0.1,21.5l7.2-8.5l-7.3,10.4l-0.2,11.8l6.8-11.3l-6.8,13l-0.1,6.6l9.8-15.7
	l-9.9,18L396.1,424.5z"/>
<rect x="514.8" y="261.5" class="st0" width="384.5" height="211.7"/>
<circle class="st7" cx="579.2" cy="338" r="31.7"/>
<circle class="st7" cx="707" cy="338" r="31.7"/>
<circle class="st7" cx="834.8" cy="338" r="31.7"/>
<rect x="535.4" y="393.4" class="st7" width="86.6" height="8.4"/>
<rect x="664.2" y="393.4" class="st7" width="86.6" height="8.4"/>
<rect x="793.1" y="393.4" class="st6" width="86.6" height="8.4"/>
<path class="st1" d="M1191.5,675.5c0,27.1-99.9,88.7-231.6,88.7s-245.8-61.6-245.8-88.7c0-6.8,11.2,1.6,23.2-4.2
	c35.1-17.1,118.8-4.5,213.8-5.2c2.9,0,5.9,0,8.8,0C1091.6,666,1191.5,648.4,1191.5,675.5z"/>
<path class="st2" d="M1191.5,675.5c0,27.1-99.9,88.7-231.6,88.7s-245.8-61.6-245.8-88.7c0-6.8,11.2,1.6,23.2-4.2
	c35.1-17.1,118.8-4.5,213.8-5.2c2.9,0,5.9,0,8.8,0C1091.6,666,1191.5,648.4,1191.5,675.5z"/>
<path class="st1" d="M1191,675c0,27.1-106.7,49.1-238.4,49.1s-238.4-22-238.4-49.1c0-6.8,6.7-13.2,18.7-19.1
	c35.1-17.1,115.9-29.3,210.9-30c2.9,0,5.9,0,8.8,0C1084.2,625.9,1191,647.9,1191,675z"/>
<ellipse class="st8" cx="964.9" cy="566.7" rx="57.1" ry="64.7"/>
<path class="st1" d="M990,449.5l-85.8,2.6c0,0-88,82.6-25.3,105c0,0,89.3,3.9,107.8-10.7C986.7,546.5,1009.8,455.5,990,449.5z
	 M986,474l-91.7,5.9c0,0,6.6-22.4,33-22.4s56.1-5.9,58.7,7.9S986,474,986,474L986,474z"/>
<path class="st8" d="M1077.7,501.7l-112.8-4l26.4-111.5c0,0,105.6-7.9,102.9,19.1C1091.6,432.4,1077.7,501.7,1077.7,501.7z"/>
<path class="st8" d="M968.8,555c0,0-67.9,12-92.3-23.6s92.4-16.5,92.4-16.5l9.9,27.1L968.8,555z"/>
<circle class="st8" cx="948.4" cy="675.2" r="31"/>
<ellipse class="st1" cx="951.4" cy="675.2" rx="19.5" ry="22.4"/>
<path class="st1" d="M1118,382.9c0,0-25.7-14.5-27.1,19.8l-21.8,159.7h9.2l25.1-170.9c0,0,12.5,2,14.5,2S1118,382.9,1118,382.9z"/>
<path class="st8" d="M1143.6,400.5L1143.6,400.5c-0.9,3.3-4.3,5.2-7.6,4.3c-0.3-0.1-0.5-0.2-0.8-0.3l-29.9-12.8l5.4-11.9l29.4,13.4
	C1143,394.5,1144.5,397.6,1143.6,400.5z"/>
<path class="st1" d="M962.3,551.2c0,0-47.5-5.3-60.7,40.3s-11.9,80.5-23.1,77.9s-35-11.9-35-11.9l2,13.9c0,0,41.6,21.1,48.2-1.3
	S904.2,565,941.8,567s44.2-2,44.2-2L962.3,551.2z"/>
<path class="st1" d="M871.9,529.4c0,0-37,4.6-51.5,31.7s-21.8,75.9-21.8,75.9h13.9c0,0,7.9-97,49.5-91.7L871.9,529.4z"/>
<path class="st8" d="M846.8,680.5l-58.7-36.3c0,0-3.3-13.2,34.3-18.5c0,0,71.1,24.9,64.3,34.2S856.7,683.8,846.8,680.5z"/>
<path class="st5" d="M955.8,471.9c1.8,2,35.1,33.6,35.1,33.6s-3.3,22.1-38.9,24.8l-59.3,4.6c0,0-11.2,41.2-24.6,54.3
	s-7.2,13.9-12.2,20.3s2,8.1-5.6,8.8s-23.3-8.6-23.5-15.7s4.3-11.2,6.2-13s7-19.1,10-22.8s14.3-47.7,14.3-47.7s11.3-21.3,27-23
	s33.1-9.3,33.1-9.3"/>
<path class="st2" d="M955.8,471.9c1.8,2,35.1,33.6,35.1,33.6s-3.3,22.1-38.9,24.8l-59.3,4.6c0,0-11.2,41.2-24.6,54.3
	s-7.2,13.9-12.2,20.3s2,8.1-5.6,8.8s-23.3-8.6-23.5-15.7s4.3-11.2,6.2-13s7-19.1,10-22.8s14.3-47.7,14.3-47.7s11.3-21.3,27-23
	s33.1-9.3,33.1-9.3"/>
<path class="st9" d="M898.3,366.2c0,0-12.5-33.9-21-23.1c-8.5,10.8,13.8,28.6,13.8,28.6L898.3,366.2z"/>
<path class="st10" d="M964.1,383.9l-7.1-3c0,0-13.1,8.8-13.9,11.7c-0.9,2.9,1,1.9-4.1,4.4c-5.1,2.5-19.1,8.6-21,9.6
	S895,370.3,900,365c0,0-9.4,3.4-13.7,2.1c0,0,10.7,52,12.4,59s5.4,7.9,12.5,8.1c7.1,0.3,50.2-12.4,50.2-12.4L964.1,383.9z"/>
<path class="st5" d="M852.8,607.4c0,0-0.4,7.4,0.9,8.2s8.8,18.8-2.9,20.5s-18.2-0.5-21,0.4s-49.6-2.9-49.2-10.3s23.7-5.4,23.7-5.4
	s23.1-10.9,27.5-17.7S852.8,607.4,852.8,607.4z"/>
<path class="st2" d="M852.8,607.4c0,0-0.4,7.4,0.9,8.2s8.8,18.8-2.9,20.5s-18.2-0.5-21,0.4s-49.6-2.9-49.2-10.3s23.7-5.4,23.7-5.4
	s23.1-10.9,27.5-17.7S852.8,607.4,852.8,607.4z"/>
<path class="st5" d="M876.9,646.2c0,0-7.1,31-12.3,30.6s-42-18.2-46.5-21.8c-5.8-4.6-5.6-12.6,1.1-10.9s25.5,0.2,28.8-3.2l8.2-8.8
	L876.9,646.2z"/>
<path class="st5" d="M949.8,474.2c1.9,1.8,61.2,52.1,61.2,52.1s-1.7,22.3-37,27.6l-58.9,8.9c0,0-8.2,41.9-20.5,56
	s-6.2,14.4-10.7,21.1s2.6,8-4.9,9.1s-23.9-6.8-24.5-13.9s3.4-11.5,5.3-13.4s5.6-19.6,8.3-23.4s10.8-48.6,10.8-48.6
	s9.7-22.1,25.3-24.9s32.4-11.7,32.4-11.7"/>
<ellipse transform="matrix(0.3827 -0.9239 0.9239 0.3827 308.2998 1136.0576)" class="st9" cx="1004.3" cy="337.3" rx="28.1" ry="28.1"/>
<path class="st9" d="M1019,354.9c0,0-4.2,17.2,2.2,25.9c6.4,8.8-42.9,4.6-42.9,4.6s13.3-27.8,8.4-34.3S1019,354.9,1019,354.9z"/>
<path class="st10" d="M955.9,381.8c-6,6.3-3.9,42.2-3.9,42.2l3.8,32c0,0-4.6,5.8-3.1,8.1s3.9,4.6-0.8,5.7s-15.5,2.8-12.1,7.9
	c1.1,1.4,2.3,2.8,3.6,4.1c1.1,1.2,2.4,2.5,3.9,4c3.5,3.5,7.9,7.8,12.8,12.4c1.4,1.3,2.8,2.6,4.3,3.9c18.7,17,42.1,34.9,46.9,26.3
	c8.1-14.4,13.7-16.5,13.3-28.8s10-43.8,10-43.8s12.1-53.8-4.9-69.8l-2.7-4.3c-2.5-4.1-7.4-6-12-4.9c-8.3,2-21.1,4.7-26.6,4.3
	c-8.5-0.7-6.7-4.2-6.7-4.2S961.9,375.5,955.9,381.8z"/>
<path class="st9" d="M929.6,496.6c0,0-34.7,8.6-29.6,20.8s35.2-10,35.2-10L929.6,496.6z"/>
<path class="st11" d="M1019.8,347.6c-0.7-0.8,0-2.1,0.6-3c3.2-4.8,3.8-11.7,0.3-16.3c-1.4-1.7-3.1-3.1-5.1-4.1
	c-2.8-1.5-5.8-2.4-9-2.7c-1.7,0-3.3-0.3-4.9-1c-1-0.5-5.6-2.1-6.6-2.6c-2.2-1-5.2-0.6-6.6-2.6c-1.3-1.9-0.1-4.5,1.2-6.4
	c3-4.4,10.4-8,15.6-9.1c3.9-0.9,8,0.4,11.6,2.1c4.2,2.1,8.1,4.5,11.8,7.4c5.1,3.7,10,7.9,13.1,13.4c3,5.5,3.8,12.7,0.3,18
	c-0.7,1.1-1.6,2.1-2.3,3.2c-1.6,2.7-1.9,6.1-3.1,9.1c-1.7,4.4-5.3,7.9-9.7,9.5c-3.5,1.3-7.8,1.7-9.9,4.8l-1-6.5
	c-0.5-1.7,0.2-3.5,1.8-4.4l5-4.2c1-0.7,1.7-1.6,2.2-2.8C1026.2,344.9,1021,349,1019.8,347.6z"/>
<path class="st2" d="M970,471.3L947.5,486c4.5,4.5,10.5,10.4,17.1,16.3c6.3-3.4,12.6-7,18.3-10.7c20.9-13.4,38.8-47,46.8-63.4
	s1.5-28.9,1.5-28.9c-5.3-2.4-10.9-3.9-16.7-4.7C1004.1,393.1,970,471.3,970,471.3z"/>
<path class="st2" d="M967,466.6L943.6,482c1.1,1.2,2.4,2.5,3.9,4c3.5,3.5,7.9,7.8,12.8,12.4c6.7-3.6,13.5-7.5,19.6-11.4
	c20.9-13.4,38.8-47,46.8-63.4c8-16.3-13.6-10.5-13.6-10.5s11.2-5.1,0.7-6.6S967,466.6,967,466.6z"/>
<path class="st10" d="M1030.2,396.6c0,0,6.5,12.6-1.5,28.9c-8,16.3-25.9,50-46.8,63.4s-50.7,26.6-50.7,26.6s-2.8-15.5-7.6-17.3
	l45.5-29.8c0,0,34.1-78.1,44.5-76.5C1019.2,392.7,1024.9,394.3,1030.2,396.6z"/>
<polygon class="st1" points="937.9,562.4 937.9,639.6 946.4,639.6 946.4,561.1 "/>
<path class="st8" d="M950.4,609.9c0,0,16.5,64.7,5.9,73.9c0,0-13.9-40.9-24.4-35.6l3.3-38.3H950.4z"/>
<path class="st1" d="M1078.4,469.3l-85.8,2.6c0,0-75.9,73.9-13.2,96.3c0,0,77.2,12.5,95.7-2C1075.1,566.3,1098.2,475.3,1078.4,469.3
	z M1074.4,493.8l-91.7,5.9c0,0,6.6-22.4,33-22.4c26.4,0,56.1-5.9,58.7,7.9S1074.4,493.8,1074.4,493.8L1074.4,493.8z"/>
<ellipse class="st8" cx="1058.9" cy="608.6" rx="86.1" ry="97.7"/>
<ellipse class="st1" cx="1062.9" cy="608.6" rx="65" ry="72.6"/>
<path class="st8" d="M1079.7,607.6c0-1.3-0.1-2.5-0.4-3.8l48.5-24.3l-3.3-7.3l-49,23.9c-0.5-0.5-1-1-1.6-1.4l0,0l14.3-71.4
	l-12.7-0.3l-8.4,70.2l0.8,0.2c-0.7,0.1-1.3,0.4-1.9,0.6l-42.4-43.5l-6,8.4l43.6,40.1c-1.1,2.1-1.7,4.4-1.9,6.8L997.9,631l-1.3,10.6
	l64-26.9c0.6,1.5,1.4,2.8,2.5,4l-19.7,67.1h7.3l16.5-64.4c0.7,0.2,1.5,0.4,2.3,0.4c1.5,0,2.9-0.4,4.2-1.3l34.4,45.5l10.6-7.3
	l-40.3-44C1079.3,612.4,1079.7,610,1079.7,607.6z"/>
<circle class="st6" cx="853.5" cy="337.5" r="31.7"/>
<circle class="st7" cx="299.6" cy="129.1" r="3.5"/>
<circle class="st7" cx="311.9" cy="122" r="3.5"/>
<circle class="st7" cx="324.1" cy="114.9" r="3.5"/>
<rect x="298.1" y="134.4" transform="matrix(0.8665 -0.4992 0.4992 0.8665 -26.8686 169.1682)" class="st7" width="9.6" height="0.9"/>
<rect x="310.4" y="127.2" transform="matrix(0.8665 -0.4992 0.4992 0.8665 -21.6604 174.3916)" class="st7" width="9.6" height="0.9"/>
<rect x="322.8" y="120.1" transform="matrix(0.8665 -0.4992 0.4992 0.8665 -16.4522 179.6151)" class="st6" width="9.6" height="0.9"/>
<circle class="st6" cx="325.9" cy="113.8" r="3.5"/>
</svg>
