<?xml version="1.0" standalone="no"?>
<!DOCTYPE svg PUBLIC "-//W3C//DTD SVG 20010904//EN"
 "http://www.w3.org/TR/2001/REC-SVG-20010904/DTD/svg10.dtd">
<svg version="1.0" xmlns="http://www.w3.org/2000/svg"
 width="4096.000000pt" height="4096.000000pt" viewBox="0 0 4096.000000 4096.000000"
 preserveAspectRatio="xMidYMid meet">
<metadata>
Created by potrace 1.11, written by Peter Selinger 2001-2013
</metadata>
<g transform="translate(0.000000,4096.000000) scale(0.100000,-0.100000)"
fill="#000000" stroke="none">
<path d="M10275 30680 l-10200 -10200 10203 -10203 10202 -10202 10202 10202
10203 10203 -10200 10200 c-5610 5610 -10202 10200 -10205 10200 -3 0 -4595
-4590 -10205 -10200z m5830 -3930 c666 -37 1264 -192 1850 -480 687 -337 1292
-847 1747 -1471 343 -471 631 -1084 754 -1603 10 -42 20 -76 23 -76 4 0 17 42
30 93 161 632 489 1268 938 1822 125 154 484 513 638 638 525 426 1089 723
1712 902 888 255 1867 239 2751 -46 719 -232 1357 -624 1897 -1164 534 -533
917 -1153 1151 -1860 477 -1443 241 -2976 -651 -4230 -101 -142 -242 -318
-359 -447 -109 -121 45 22 -2331 -2169 -1034 -954 -2750 -2536 -3813 -3517
-1064 -981 -1939 -1781 -1946 -1779 -7 3 -212 189 -457 414 -244 225 -1958
1801 -3809 3502 -3652 3357 -3919 3609 -4218 3979 -524 647 -790 1341 -874
2282 -15 178 -15 731 1 885 85 832 326 1524 757 2183 925 1412 2541 2234 4209
2142z"/>
</g>
</svg>
