<?xml version="1.0" encoding="utf-8" ?>	<!-- Generator: Assembly 2.2 - http://assemblyapp.co -->	<svg version="1.1" xmlns="http://www.w3.org/2000/svg" xmlns:xlink="http://www.w3.org/1999/xlink" width="2048.00" height="2048.00" viewBox="0 0 2048.0 2048.0">		<g id="document" transform="matrix(1,0,0,1,1024.0,1024.0)">			<path d="M-1020.32,1.27898e-13 L6.03961e-14,1020.32 L1020.32,1.42109e-14 L-1.66978e-13,-1020.32 L-1020.32,1.27898e-13 Z " fill="#dc3545" fill-opacity="1.00" />			<path d="M467.912,-76.6784 C467.912,-207.01 362.151,-313.839 230.751,-313.839 C119.649,-313.839 25.639,-236.922 0,-131.161 C-24.5707,-235.854 -118.58,-313.839 -230.751,-313.839 C-361.083,-313.839 -467.912,-208.078 -467.912,-76.6784 C-467.912,-11.5126 -449.751,36.5606 -407.019,79.2923 C-402.746,83.5654 -390.995,95.3166 -384.585,101.726 L1.06829,456.399 L386.722,100.658 C392.063,96.3849 393.131,94.2484 397.405,91.0435 L398.473,89.9752 C440.136,47.2435 467.912,-11.5126 467.912,-76.6784 Z " fill="#ffffff" fill-opacity="1.00" />		</g>	</svg>